<mxfile host="app.diagrams.net" agent="Mozilla/5.0 (Macintosh; Intel Mac OS X 10_15_7) AppleWebKit/537.36 (KHTML, like Gecko) Chrome/131.0.0.0 Safari/537.36" version="24.7.16">
  <diagram name="Page-1" id="FlE0KS_X0zKIKSjEvkQi">
    <mxGraphModel dx="984" dy="579" grid="1" gridSize="10" guides="1" tooltips="1" connect="1" arrows="1" fold="1" page="1" pageScale="1" pageWidth="827" pageHeight="1169" math="0" shadow="0">
      <root>
        <mxCell id="0" />
        <mxCell id="1" parent="0" />
        <mxCell id="ao2yYEUB2gxAFqEkCmoj-1" value="&lt;font style=&quot;font-size: 18px;&quot;&gt;y&lt;/font&gt;" style="ellipse;whiteSpace=wrap;html=1;aspect=fixed;fillColor=#d5e8d4;strokeColor=#82b366;" vertex="1" parent="1">
          <mxGeometry x="130" y="240" width="80" height="80" as="geometry" />
        </mxCell>
        <mxCell id="ao2yYEUB2gxAFqEkCmoj-7" style="edgeStyle=orthogonalEdgeStyle;rounded=0;orthogonalLoop=1;jettySize=auto;html=1;entryX=0.5;entryY=0;entryDx=0;entryDy=0;" edge="1" parent="1" source="ao2yYEUB2gxAFqEkCmoj-3" target="ao2yYEUB2gxAFqEkCmoj-6">
          <mxGeometry relative="1" as="geometry" />
        </mxCell>
        <mxCell id="ao2yYEUB2gxAFqEkCmoj-3" value="&lt;font style=&quot;font-size: 17px;&quot;&gt;mx&lt;/font&gt;" style="ellipse;whiteSpace=wrap;html=1;aspect=fixed;fillColor=#fff2cc;strokeColor=#d6b656;" vertex="1" parent="1">
          <mxGeometry x="374" y="170" width="80" height="80" as="geometry" />
        </mxCell>
        <mxCell id="ao2yYEUB2gxAFqEkCmoj-8" style="edgeStyle=orthogonalEdgeStyle;rounded=0;orthogonalLoop=1;jettySize=auto;html=1;entryX=0.5;entryY=1;entryDx=0;entryDy=0;" edge="1" parent="1" source="ao2yYEUB2gxAFqEkCmoj-4" target="ao2yYEUB2gxAFqEkCmoj-6">
          <mxGeometry relative="1" as="geometry" />
        </mxCell>
        <mxCell id="ao2yYEUB2gxAFqEkCmoj-4" value="&lt;font style=&quot;font-size: 17px;&quot;&gt;c&lt;/font&gt;" style="ellipse;whiteSpace=wrap;html=1;aspect=fixed;fillColor=#fff2cc;strokeColor=#d6b656;" vertex="1" parent="1">
          <mxGeometry x="380" y="310" width="80" height="80" as="geometry" />
        </mxCell>
        <mxCell id="ao2yYEUB2gxAFqEkCmoj-9" style="edgeStyle=orthogonalEdgeStyle;rounded=0;orthogonalLoop=1;jettySize=auto;html=1;entryX=1;entryY=0.5;entryDx=0;entryDy=0;" edge="1" parent="1" source="ao2yYEUB2gxAFqEkCmoj-6" target="ao2yYEUB2gxAFqEkCmoj-1">
          <mxGeometry relative="1" as="geometry" />
        </mxCell>
        <mxCell id="ao2yYEUB2gxAFqEkCmoj-6" value="&lt;font style=&quot;font-size: 18px;&quot;&gt;+&lt;/font&gt;" style="rounded=1;whiteSpace=wrap;html=1;fillColor=#e1d5e7;strokeColor=#9673a6;" vertex="1" parent="1">
          <mxGeometry x="280" y="260" width="50" height="40" as="geometry" />
        </mxCell>
        <mxCell id="ao2yYEUB2gxAFqEkCmoj-13" style="edgeStyle=orthogonalEdgeStyle;rounded=0;orthogonalLoop=1;jettySize=auto;html=1;entryX=0.5;entryY=0;entryDx=0;entryDy=0;" edge="1" parent="1" source="ao2yYEUB2gxAFqEkCmoj-10" target="ao2yYEUB2gxAFqEkCmoj-12">
          <mxGeometry relative="1" as="geometry" />
        </mxCell>
        <mxCell id="ao2yYEUB2gxAFqEkCmoj-10" value="&lt;font style=&quot;font-size: 17px;&quot;&gt;m&lt;/font&gt;" style="ellipse;whiteSpace=wrap;html=1;aspect=fixed;fillColor=#fff2cc;strokeColor=#d6b656;" vertex="1" parent="1">
          <mxGeometry x="610" y="70" width="80" height="80" as="geometry" />
        </mxCell>
        <mxCell id="ao2yYEUB2gxAFqEkCmoj-14" style="edgeStyle=orthogonalEdgeStyle;rounded=0;orthogonalLoop=1;jettySize=auto;html=1;entryX=0.5;entryY=1;entryDx=0;entryDy=0;" edge="1" parent="1" source="ao2yYEUB2gxAFqEkCmoj-11" target="ao2yYEUB2gxAFqEkCmoj-12">
          <mxGeometry relative="1" as="geometry" />
        </mxCell>
        <mxCell id="ao2yYEUB2gxAFqEkCmoj-11" value="&lt;font style=&quot;font-size: 17px;&quot;&gt;x&lt;/font&gt;" style="ellipse;whiteSpace=wrap;html=1;aspect=fixed;fillColor=#fff2cc;strokeColor=#d6b656;" vertex="1" parent="1">
          <mxGeometry x="620" y="230" width="80" height="80" as="geometry" />
        </mxCell>
        <mxCell id="ao2yYEUB2gxAFqEkCmoj-15" style="edgeStyle=orthogonalEdgeStyle;rounded=0;orthogonalLoop=1;jettySize=auto;html=1;entryX=1;entryY=0.5;entryDx=0;entryDy=0;" edge="1" parent="1" source="ao2yYEUB2gxAFqEkCmoj-12" target="ao2yYEUB2gxAFqEkCmoj-3">
          <mxGeometry relative="1" as="geometry" />
        </mxCell>
        <mxCell id="ao2yYEUB2gxAFqEkCmoj-12" value="&lt;font style=&quot;font-size: 22px;&quot;&gt;*&lt;/font&gt;" style="rounded=1;whiteSpace=wrap;html=1;fillColor=#e1d5e7;strokeColor=#9673a6;" vertex="1" parent="1">
          <mxGeometry x="520" y="170" width="50" height="40" as="geometry" />
        </mxCell>
        <mxCell id="ao2yYEUB2gxAFqEkCmoj-16" value="&lt;font style=&quot;font-size: 17px;&quot;&gt;Value nodes&lt;/font&gt;" style="text;html=1;align=center;verticalAlign=middle;whiteSpace=wrap;rounded=0;" vertex="1" parent="1">
          <mxGeometry x="640" y="320" width="100" height="40" as="geometry" />
        </mxCell>
      </root>
    </mxGraphModel>
  </diagram>
</mxfile>
